<svg aria-hidden="true" style="position: absolute; width: 0; height: 0; overflow: hidden;" version="1.1" xmlns="http://www.w3.org/2000/svg" xmlns:xlink="http://www.w3.org/1999/xlink">
<defs>
<symbol id="icon-iam_policies" viewBox="0 0 33 32">
<path fill="#f25d5d" style="fill: var(--color1, #f25d5d)" d="M19.193 14.667c0 0.53-0.158 1.048-0.454 1.488s-0.716 0.782-1.206 0.982v3.197c0 0.265-0.105 0.52-0.293 0.707s-0.442 0.293-0.707 0.293-0.52-0.105-0.707-0.293c-0.188-0.187-0.293-0.442-0.293-0.707v-3.192c-0.449-0.18-0.841-0.48-1.133-0.866s-0.474-0.844-0.525-1.326c-0.051-0.481 0.029-0.968 0.233-1.407s0.524-0.814 0.925-1.086 0.868-0.428 1.352-0.454c0.483-0.026 0.965 0.081 1.392 0.308s0.785 0.566 1.035 0.981c0.249 0.415 0.381 0.89 0.381 1.374zM5.533 6.667c-0.265 0-0.52 0.105-0.707 0.293s-0.293 0.442-0.293 0.707v7c0 6.668 3.944 11.568 11.633 14.597 0.236 0.093 0.498 0.093 0.733 0 7.689-3.029 11.633-7.931 11.633-14.597v-7c0-0.265-0.105-0.52-0.293-0.707s-0.442-0.293-0.707-0.293c-3.551 0-7.011-1.257-10.4-3.8-0.173-0.13-0.384-0.2-0.6-0.2s-0.427 0.070-0.6 0.2c-3.389 2.543-6.849 3.8-10.4 3.8zM6.533 14.667v-6.029c3.436-0.203 6.773-1.453 10-3.733 3.227 2.28 6.564 3.531 10 3.733v6.029c0 5.675-3.271 9.839-10 12.589-6.729-2.751-10-6.915-10-12.589z"></path>
</symbol>
<symbol id="icon-compute_resources" viewBox="0 0 33 32">
<path fill="none" stroke="#f4a732" style="stroke: var(--color2, #f4a732)" stroke-linejoin="miter" stroke-linecap="butt" stroke-miterlimit="4" stroke-width="1.3333" d="M12.8 8c0 0.525 0.103 1.045 0.304 1.531s0.496 0.926 0.867 1.298c0.371 0.371 0.812 0.666 1.298 0.867s1.005 0.304 1.531 0.304 1.045-0.103 1.531-0.304c0.485-0.201 0.926-0.496 1.298-0.867s0.666-0.812 0.867-1.298c0.201-0.485 0.305-1.005 0.305-1.531s-0.103-1.045-0.305-1.531c-0.201-0.485-0.496-0.926-0.867-1.298s-0.812-0.666-1.298-0.867c-0.485-0.201-1.005-0.304-1.531-0.304s-1.045 0.103-1.531 0.304c-0.485 0.201-0.926 0.496-1.298 0.867s-0.666 0.812-0.867 1.298c-0.201 0.485-0.304 1.005-0.304 1.531v0z"></path>
<path fill="none" stroke="#f4a732" style="stroke: var(--color2, #f4a732)" stroke-linejoin="miter" stroke-linecap="butt" stroke-miterlimit="4" stroke-width="1.3333" d="M6.717 18.535c-0.455 0.263-0.854 0.612-1.173 1.029s-0.554 0.892-0.69 1.4c-0.136 0.507-0.171 1.037-0.102 1.557s0.239 1.023 0.502 1.478c0.263 0.455 0.612 0.854 1.029 1.173s0.892 0.554 1.4 0.69c0.507 0.136 1.037 0.171 1.557 0.102s1.023-0.239 1.478-0.502c0.455-0.263 0.854-0.612 1.173-1.029s0.554-0.892 0.69-1.4c0.136-0.507 0.171-1.037 0.102-1.557s-0.239-1.023-0.502-1.478c-0.263-0.455-0.612-0.854-1.029-1.173s-0.892-0.554-1.4-0.69-1.037-0.171-1.557-0.102c-0.521 0.069-1.023 0.239-1.478 0.502v0z"></path>
<path fill="none" stroke="#f4a732" style="stroke: var(--color2, #f4a732)" stroke-linejoin="miter" stroke-linecap="butt" stroke-miterlimit="4" stroke-width="1.3333" d="M26.883 18.535c0.455 0.263 0.854 0.612 1.173 1.029s0.554 0.892 0.69 1.4c0.136 0.507 0.171 1.037 0.102 1.557s-0.239 1.023-0.502 1.478c-0.263 0.455-0.612 0.854-1.029 1.173s-0.892 0.554-1.4 0.69c-0.507 0.136-1.037 0.171-1.557 0.102s-1.023-0.239-1.478-0.502c-0.455-0.263-0.854-0.612-1.173-1.029s-0.554-0.892-0.69-1.4c-0.136-0.507-0.171-1.037-0.102-1.557s0.239-1.023 0.502-1.478 0.612-0.854 1.029-1.173c0.417-0.32 0.892-0.554 1.4-0.69s1.037-0.171 1.557-0.102c0.521 0.069 1.023 0.239 1.478 0.502v0z"></path>
<path fill="#f4a732" style="fill: var(--color2, #f4a732)" d="M12.804 8.167c-0.002-0.055-0.003-0.111-0.003-0.167 0-0.463 0.080-0.922 0.237-1.357-0.193 0.068-0.385 0.141-0.574 0.22-1.375 0.57-2.624 1.404-3.677 2.457s-1.887 2.302-2.457 3.677c-0.57 1.375-0.863 2.849-0.863 4.337 0 0.702 0.065 1.4 0.194 2.086 0.298-0.353 0.656-0.652 1.057-0.884 0.048-0.028 0.097-0.055 0.146-0.080-0.042-0.372-0.063-0.746-0.063-1.122 0-1.313 0.259-2.614 0.761-3.827s1.239-2.316 2.168-3.244c0.885-0.885 1.928-1.596 3.074-2.096zM20.797 8.167c1.147 0.5 2.189 1.21 3.075 2.096 0.929 0.929 1.665 2.031 2.168 3.244s0.761 2.514 0.761 3.827c0 0.376-0.021 0.75-0.063 1.122 0.049 0.026 0.098 0.053 0.146 0.080 0.401 0.232 0.759 0.531 1.057 0.884 0.129-0.686 0.194-1.385 0.194-2.086 0-1.488-0.293-2.962-0.863-4.337s-1.404-2.624-2.457-3.677-2.302-1.887-3.677-2.457c-0.19-0.079-0.381-0.152-0.574-0.22 0.157 0.435 0.237 0.894 0.237 1.357 0 0.056-0.001 0.111-0.003 0.167zM24.177 25.937c-0.455-0.082-0.893-0.242-1.295-0.473-0.048-0.028-0.095-0.057-0.142-0.086-0.652 0.481-1.362 0.883-2.114 1.195-1.213 0.503-2.514 0.761-3.827 0.761s-2.614-0.259-3.827-0.761c-0.752-0.312-1.462-0.713-2.114-1.195-0.047 0.030-0.094 0.058-0.142 0.086-0.401 0.232-0.839 0.392-1.294 0.473 0.907 0.778 1.933 1.409 3.040 1.867 1.375 0.569 2.849 0.863 4.337 0.863s2.962-0.293 4.337-0.863c1.107-0.459 2.133-1.089 3.040-1.867z"></path>
</symbol>
<symbol id="icon-iam_users" viewBox="0 0 32 32">
<path fill="#3cdc86" style="fill: var(--color3, #3cdc86)" d="M28.987 26.5c-1.866-3.214-4.853-5.627-8.387-6.775 1.694-1.008 3.011-2.544 3.748-4.372s0.853-3.848 0.33-5.749c-0.522-1.901-1.655-3.577-3.222-4.772s-3.485-1.842-5.456-1.842-3.888 0.647-5.456 1.842c-1.568 1.195-2.7 2.872-3.222 4.772s-0.406 3.921 0.33 5.749c0.737 1.828 2.053 3.364 3.748 4.372-3.535 1.148-6.522 3.561-8.387 6.775-0.078 0.114-0.132 0.242-0.158 0.377s-0.024 0.275 0.006 0.409 0.088 0.261 0.17 0.373c0.082 0.111 0.185 0.204 0.305 0.273s0.252 0.113 0.389 0.129c0.137 0.015 0.276 0.003 0.408-0.038s0.254-0.108 0.358-0.198 0.189-0.201 0.249-0.325c1.143-1.975 2.785-3.615 4.762-4.755s4.219-1.74 6.5-1.74 4.524 0.6 6.501 1.74c1.977 1.14 3.619 2.78 4.762 4.755 0.060 0.124 0.144 0.235 0.249 0.325s0.226 0.157 0.358 0.198c0.132 0.041 0.271 0.053 0.408 0.038s0.269-0.059 0.389-0.129c0.119-0.069 0.223-0.162 0.305-0.273s0.139-0.238 0.17-0.373c0.030-0.135 0.032-0.274 0.006-0.409s-0.080-0.264-0.158-0.377zM9 12c0-1.384 0.411-2.738 1.18-3.889s1.862-2.048 3.142-2.578c1.279-0.53 2.686-0.668 4.044-0.398s2.605 0.937 3.584 1.916c0.979 0.979 1.646 2.226 1.916 3.584s0.131 2.765-0.398 4.044c-0.53 1.279-1.427 2.372-2.578 3.141s-2.504 1.18-3.889 1.18c-1.857 0-3.637-0.737-4.95-2.050s-2.050-3.093-2.050-4.95z"></path>
</symbol>
<symbol id="icon-iam_roles" viewBox="0 0 33 32">
<path fill="#4998ee" style="fill: var(--color4, #4998ee)" d="M18.659 6.325h0.667v-0.028l-0.002-0.028-0.664 0.057zM18.659 6.325l0.664-0.057-0.001-0.010-0.663 0.066zM18.659 6.325h-0.667v0.033l0.003 0.033 0.663-0.066zM18.82 7.368v0zM20.565 8.091v0zM21.416 7.467v0zM21.889 7.114v0zM23.251 7.182v0zM23.686 7.58v0zM24.687 8.581l-0.471 0.471 0.008 0.008 0.008 0.007 0.456-0.486zM24.687 8.581l0.471-0.471-0.008-0.008-0.008-0.007-0.456 0.486zM25.084 9.016v0zM25.152 10.378v0zM24.8 10.85l-0.516-0.422-0.005 0.006 0.521 0.416zM24.8 10.85l0.516 0.422 0.005-0.006-0.521-0.416zM24.176 11.701v0zM24.899 13.447v0zM25.942 13.607v0zM26.525 13.692v0zM27.441 14.704v0zM27.441 17.296v0zM26.525 18.308v0zM25.942 18.392v0zM25.942 18.392v0zM24.899 18.553v0zM24.176 20.299v0zM24.8 21.149v0zM25.152 21.621v0zM25.084 22.984v0zM24.687 23.419v0zM23.686 24.419v0zM23.686 24.419v0zM23.251 24.817v0zM21.889 24.885v0zM21.416 24.533l0.422-0.516-0.025-0.021-0.027-0.018-0.37 0.555zM21.416 24.533l-0.422 0.516 0.025 0.021 0.027 0.018 0.37-0.555zM20.565 23.909v0zM18.82 24.632v0zM18.659 25.675v0zM18.575 26.259v0zM17.563 27.174v0zM14.97 27.174v0zM13.959 26.259v0zM13.874 25.675v0zM13.713 24.632v0zM11.968 23.909v0zM11.117 24.533v0zM10.645 24.886v0zM9.282 24.818v0zM8.847 24.42v0zM7.847 23.419v0zM7.449 22.984v0zM7.381 21.622v0zM7.734 21.15l-0.502-0.439-0.007 0.008-0.007 0.009 0.516 0.422zM7.734 21.15l0.502 0.439 0.007-0.008 0.007-0.009-0.516-0.422zM8.357 20.299v0zM7.635 18.553v0zM6.592 18.392v0zM6.008 18.308v0zM5.093 17.296v0zM5.067 16.707v0zM5.067 15.293v0zM5.093 14.703v0zM6.008 13.692v0zM6.592 13.607v0zM7.635 13.447v0zM8.358 11.702v0zM7.734 10.85l-0.533 0.4 0.008 0.011 0.009 0.011 0.516-0.422zM7.734 10.85l0.533-0.4-0.008-0.011-0.009-0.011-0.516 0.422zM7.381 10.377v0zM7.449 9.015v0zM9.282 7.182v0zM10.645 7.114v0zM11.117 7.466v0zM11.968 8.090v0zM13.714 7.367v0zM13.874 6.325l-0.658-0.11-0.004 0.022-0.002 0.022 0.663 0.066zM13.874 6.325l0.658 0.11 0.004-0.022 0.002-0.022-0.663-0.066zM13.959 5.742v0zM14.97 4.826v0zM17.563 4.826v0zM18.575 5.742v0zM19.323 6.268v0zM19.326 6.325v0zM19.436 7.114c-0.004-0.011-0.021-0.060-0.043-0.214-0.021-0.149-0.041-0.348-0.071-0.642l-1.327 0.133c0.028 0.282 0.051 0.514 0.077 0.697 0.025 0.179 0.060 0.364 0.13 0.534l1.233-0.508zM20.309 7.475c-0.341 0.142-0.732-0.020-0.873-0.361l-1.233 0.508c0.422 1.024 1.596 1.51 2.618 1.084l-0.513-1.231zM20.994 6.951c-0.228 0.187-0.383 0.313-0.504 0.404-0.124 0.093-0.171 0.116-0.182 0.121l0.513 1.231c0.17-0.071 0.325-0.177 0.47-0.285 0.148-0.111 0.328-0.259 0.547-0.438l-0.844-1.032zM21.577 6.525c-0.191 0.101-0.37 0.252-0.582 0.426l0.844 1.032c0.261-0.213 0.318-0.256 0.362-0.279l-0.624-1.178zM23.62 6.627c-0.611-0.406-1.395-0.445-2.044-0.102l0.624 1.178c0.216-0.114 0.478-0.101 0.681 0.034l0.738-1.11zM24.157 7.109c-0.194-0.194-0.357-0.362-0.537-0.482l-0.738 1.11c0.042 0.028 0.094 0.076 0.333 0.314l0.943-0.943zM25.158 8.109l-1.001-1.001-0.943 0.943 1.001 1.001 0.943-0.943zM25.143 8.094v0 0zM25.639 8.646c-0.119-0.18-0.287-0.343-0.481-0.537l-0.943 0.943c0.238 0.238 0.286 0.291 0.314 0.333l1.11-0.738zM25.741 10.69c0.343-0.648 0.304-1.433-0.102-2.044l-1.11 0.738c0.135 0.204 0.149 0.465 0.034 0.681l1.178 0.624zM25.316 11.273c0.174-0.212 0.325-0.392 0.426-0.582l-1.178-0.624c-0.023 0.044-0.066 0.101-0.279 0.362l1.032 0.844zM25.32 11.267v0zM24.791 11.958c0.005-0.011 0.028-0.058 0.121-0.182 0.090-0.121 0.217-0.275 0.404-0.504l-1.032-0.844c-0.179 0.219-0.327 0.399-0.438 0.547-0.109 0.145-0.215 0.3-0.285 0.469l1.231 0.513zM25.153 12.83c-0.341-0.141-0.503-0.532-0.361-0.873l-1.231-0.513c-0.426 1.022 0.060 2.196 1.085 2.618l0.508-1.233zM26.008 12.944c-0.293-0.029-0.492-0.049-0.642-0.071-0.153-0.022-0.203-0.039-0.214-0.043l-0.508 1.233c0.17 0.070 0.354 0.105 0.534 0.13 0.183 0.026 0.415 0.049 0.697 0.077l0.133-1.327zM26.721 13.055c-0.206-0.063-0.44-0.083-0.713-0.111l-0.133 1.327c0.335 0.034 0.406 0.044 0.454 0.059l0.392-1.274zM28.094 14.572c-0.145-0.719-0.672-1.302-1.373-1.517l-0.392 1.274c0.234 0.072 0.409 0.266 0.458 0.506l1.307-0.263zM28.133 15.292c0-0.275 0.003-0.509-0.039-0.72l-1.307 0.263c0.010 0.049 0.013 0.12 0.013 0.457h1.333zM28.133 16.708v-1.415h-1.333v1.415h1.333zM28.094 17.428c0.043-0.211 0.039-0.446 0.039-0.72h-1.333c0 0.337-0.003 0.408-0.013 0.457l1.307 0.263zM26.721 18.945c0.701-0.216 1.228-0.798 1.373-1.517l-1.307-0.263c-0.048 0.24-0.224 0.434-0.458 0.506l0.392 1.275zM26.008 19.056c0.273-0.027 0.507-0.047 0.713-0.111l-0.392-1.275c-0.048 0.015-0.118 0.025-0.454 0.059l0.133 1.327zM26.008 19.056v0 0zM25.153 19.169c0.011-0.004 0.060-0.021 0.214-0.043 0.149-0.021 0.348-0.041 0.641-0.071l-0.133-1.327c-0.281 0.028-0.513 0.051-0.697 0.077-0.179 0.025-0.364 0.060-0.533 0.13l0.508 1.233zM24.792 20.042c-0.142-0.341 0.020-0.732 0.362-0.873l-0.508-1.233c-1.024 0.422-1.511 1.596-1.085 2.619l1.231-0.513zM25.316 20.727c-0.187-0.228-0.313-0.383-0.403-0.503-0.093-0.124-0.116-0.171-0.121-0.181l-1.231 0.513c0.071 0.169 0.177 0.325 0.285 0.469 0.111 0.148 0.259 0.328 0.438 0.547l1.032-0.844zM25.741 21.309c-0.101-0.191-0.252-0.37-0.426-0.582l-1.032 0.844c0.213 0.261 0.256 0.318 0.279 0.362l1.178-0.624zM25.639 23.353c0.406-0.611 0.446-1.396 0.102-2.044l-1.178 0.624c0.115 0.216 0.102 0.478-0.034 0.681l1.11 0.738zM25.158 23.89c0.194-0.194 0.362-0.357 0.481-0.537l-1.11-0.738c-0.028 0.041-0.076 0.094-0.314 0.332l0.943 0.943zM24.157 24.891l1.001-1.001-0.943-0.943-1.001 1.001 0.943 0.943zM24.157 24.891v0 0zM23.62 25.372c0.18-0.119 0.343-0.287 0.537-0.482l-0.943-0.943c-0.238 0.238-0.291 0.287-0.333 0.314l0.738 1.11zM21.577 25.474c0.648 0.343 1.433 0.304 2.044-0.102l-0.738-1.11c-0.204 0.135-0.465 0.148-0.681 0.034l-0.624 1.178zM20.994 25.049c0.212 0.174 0.392 0.325 0.582 0.426l0.624-1.178c-0.044-0.023-0.101-0.066-0.362-0.279l-0.844 1.032zM21.047 25.087v0 0zM20.309 24.524c0.011 0.004 0.058 0.028 0.181 0.121 0.121 0.090 0.276 0.217 0.504 0.404l0.844-1.032c-0.219-0.179-0.399-0.327-0.547-0.438-0.145-0.109-0.3-0.215-0.469-0.285l-0.513 1.231zM19.436 24.886c0.141-0.341 0.532-0.503 0.873-0.361l0.513-1.231c-1.022-0.426-2.196 0.060-2.618 1.085l1.233 0.508zM19.323 25.741c0.029-0.293 0.049-0.492 0.071-0.642 0.022-0.153 0.039-0.203 0.043-0.214l-1.233-0.508c-0.070 0.17-0.105 0.354-0.13 0.534-0.026 0.183-0.049 0.415-0.077 0.697l1.327 0.133zM19.212 26.455c0.063-0.206 0.083-0.44 0.111-0.713l-1.327-0.133c-0.034 0.336-0.044 0.406-0.059 0.454l1.275 0.392zM17.695 27.827c0.719-0.145 1.301-0.672 1.517-1.373l-1.275-0.392c-0.072 0.234-0.266 0.409-0.506 0.458l0.263 1.307zM16.974 27.867c0.275 0 0.509 0.003 0.721-0.039l-0.263-1.307c-0.049 0.010-0.12 0.013-0.457 0.013v1.333zM15.559 27.867h1.415v-1.333h-1.415v1.333zM14.839 27.827c0.211 0.043 0.446 0.039 0.72 0.039v-1.333c-0.337 0-0.408-0.003-0.457-0.013l-0.263 1.307zM13.322 26.454c0.216 0.701 0.798 1.228 1.517 1.373l0.263-1.307c-0.24-0.048-0.434-0.224-0.506-0.458l-1.274 0.392zM13.211 25.741c0.027 0.273 0.047 0.507 0.111 0.713l1.274-0.392c-0.015-0.048-0.025-0.118-0.059-0.454l-1.327 0.133zM13.097 24.886c0.004 0.011 0.021 0.060 0.043 0.214 0.021 0.149 0.041 0.348 0.071 0.642l1.327-0.133c-0.028-0.281-0.051-0.513-0.077-0.697-0.026-0.179-0.060-0.364-0.13-0.534l-1.233 0.508zM12.224 24.525c0.341-0.142 0.732 0.020 0.873 0.361l1.233-0.508c-0.422-1.024-1.596-1.51-2.618-1.084l0.513 1.231zM11.539 25.049c0.228-0.187 0.383-0.313 0.504-0.404 0.124-0.093 0.171-0.116 0.182-0.121l-0.513-1.231c-0.17 0.071-0.325 0.177-0.47 0.285-0.148 0.111-0.328 0.259-0.547 0.438l0.844 1.032zM10.957 25.475c0.191-0.101 0.37-0.252 0.582-0.426l-0.844-1.032c-0.261 0.213-0.318 0.256-0.362 0.279l0.624 1.178zM8.913 25.373c0.611 0.406 1.395 0.445 2.044 0.102l-0.624-1.178c-0.216 0.114-0.478 0.101-0.681-0.034l-0.738 1.11zM8.376 24.891c0.194 0.194 0.357 0.362 0.537 0.482l0.738-1.11c-0.042-0.028-0.094-0.076-0.333-0.314l-0.943 0.943zM7.375 23.891l1.001 1.001 0.943-0.943-1.001-1.001-0.943 0.943zM6.894 23.353c0.119 0.18 0.288 0.343 0.482 0.537l0.943-0.943c-0.238-0.238-0.287-0.291-0.314-0.333l-1.11 0.738zM6.792 21.31c-0.343 0.648-0.304 1.433 0.102 2.043l1.11-0.738c-0.135-0.204-0.148-0.465-0.034-0.681l-1.178-0.624zM7.218 20.727c-0.174 0.213-0.325 0.392-0.426 0.583l1.178 0.624c0.023-0.044 0.066-0.101 0.279-0.362l-1.032-0.844zM7.232 20.711v0 0zM7.742 20.042c-0.005 0.011-0.028 0.058-0.121 0.182-0.090 0.121-0.217 0.275-0.404 0.504l1.032 0.844c0.179-0.219 0.327-0.399 0.438-0.548 0.109-0.145 0.215-0.3 0.285-0.469l-1.231-0.513zM7.381 19.17c0.341 0.141 0.503 0.532 0.361 0.873l1.231 0.513c0.426-1.022-0.060-2.196-1.084-2.618l-0.508 1.233zM6.525 19.056c0.293 0.029 0.492 0.049 0.642 0.071 0.153 0.022 0.203 0.039 0.214 0.043l0.508-1.233c-0.17-0.070-0.354-0.105-0.534-0.13-0.183-0.026-0.415-0.049-0.697-0.077l-0.133 1.327zM5.812 18.945c0.206 0.063 0.44 0.083 0.713 0.111l0.133-1.327c-0.335-0.033-0.406-0.044-0.454-0.059l-0.392 1.275zM4.439 17.428c0.145 0.719 0.672 1.302 1.373 1.517l0.392-1.274c-0.234-0.072-0.409-0.266-0.458-0.506l-1.307 0.263zM4.4 16.707c0 0.275-0.003 0.509 0.039 0.72l1.307-0.263c-0.010-0.049-0.013-0.12-0.013-0.457h-1.333zM4.4 15.293v1.415h1.333v-1.415h-1.333zM4.439 14.572c-0.043 0.212-0.039 0.446-0.039 0.721h1.333c0-0.337 0.003-0.409 0.013-0.457l-1.307-0.263zM5.812 13.055c-0.701 0.216-1.228 0.798-1.373 1.517l1.307 0.263c0.048-0.24 0.224-0.434 0.458-0.506l-0.392-1.274zM6.525 12.944c-0.273 0.027-0.507 0.047-0.713 0.111l0.392 1.274c0.048-0.015 0.118-0.025 0.454-0.059l-0.133-1.327zM7.381 12.83c-0.011 0.004-0.060 0.021-0.214 0.043-0.149 0.021-0.348 0.041-0.642 0.071l0.133 1.327c0.282-0.028 0.514-0.051 0.697-0.077 0.179-0.026 0.364-0.060 0.534-0.13l-0.508-1.233zM7.742 11.958c0.142 0.341-0.020 0.732-0.361 0.873l0.508 1.233c1.024-0.422 1.51-1.595 1.084-2.618l-1.231 0.512zM7.218 11.272c0.187 0.228 0.313 0.383 0.404 0.504 0.093 0.124 0.116 0.171 0.121 0.182l1.231-0.512c-0.071-0.17-0.177-0.325-0.285-0.47-0.111-0.148-0.259-0.329-0.438-0.548l-1.032 0.844zM7.2 11.25v0 0zM6.792 10.689c0.101 0.191 0.252 0.37 0.426 0.583l1.032-0.844c-0.214-0.261-0.256-0.318-0.28-0.362l-1.178 0.624zM6.894 8.646c-0.406 0.611-0.445 1.395-0.102 2.043l1.178-0.624c-0.114-0.216-0.101-0.477 0.034-0.681l-1.11-0.738zM7.375 8.109c-0.194 0.194-0.362 0.358-0.482 0.537l1.11 0.738c0.028-0.042 0.076-0.094 0.314-0.333l-0.943-0.943zM8.376 7.108l-1.001 1.001 0.943 0.943 1.001-1.001-0.943-0.943zM8.913 6.627c-0.18 0.119-0.343 0.287-0.537 0.482l0.943 0.943c0.238-0.238 0.291-0.286 0.333-0.314l-0.738-1.11zM10.957 6.525c-0.648-0.343-1.433-0.304-2.044 0.102l0.738 1.11c0.204-0.135 0.465-0.148 0.681-0.034l0.624-1.178zM11.539 6.95c-0.212-0.174-0.392-0.325-0.583-0.426l-0.624 1.178c0.044 0.023 0.101 0.066 0.362 0.28l0.844-1.032zM12.224 7.475c-0.011-0.005-0.058-0.028-0.182-0.121-0.121-0.090-0.275-0.217-0.504-0.404l-0.844 1.032c0.219 0.179 0.399 0.327 0.547 0.438 0.145 0.109 0.3 0.214 0.469 0.285l0.513-1.231zM13.097 7.113c-0.141 0.341-0.532 0.503-0.873 0.362l-0.513 1.231c1.023 0.426 2.197-0.060 2.618-1.085l-1.233-0.508zM13.211 6.258c-0.029 0.293-0.049 0.492-0.071 0.641-0.022 0.153-0.039 0.203-0.043 0.214l1.233 0.508c0.070-0.17 0.105-0.354 0.13-0.533 0.026-0.183 0.049-0.415 0.077-0.697l-1.327-0.133zM13.217 6.215v0 0zM13.322 5.546c-0.063 0.206-0.083 0.44-0.111 0.713l1.327 0.133c0.033-0.335 0.044-0.406 0.059-0.454l-1.275-0.392zM14.839 4.173c-0.719 0.145-1.302 0.672-1.517 1.373l1.275 0.392c0.072-0.234 0.266-0.409 0.506-0.458l-0.263-1.307zM15.559 4.133c-0.274 0-0.509-0.003-0.72 0.039l0.263 1.307c0.049-0.010 0.12-0.013 0.457-0.013v-1.333zM16.974 4.133h-1.415v1.333h1.415v-1.333zM17.695 4.173c-0.212-0.043-0.446-0.039-0.72-0.039v1.333c0.337 0 0.408 0.003 0.457 0.013l0.263-1.307zM19.212 5.546c-0.216-0.701-0.798-1.228-1.517-1.373l-0.263 1.307c0.24 0.048 0.434 0.224 0.506 0.458l1.274-0.392zM19.323 6.258c-0.027-0.273-0.047-0.507-0.111-0.713l-1.274 0.392c0.015 0.048 0.025 0.118 0.059 0.454l1.327-0.133zM20.080 16c0 2.106-1.707 3.813-3.813 3.813v1.333c2.843 0 5.147-2.304 5.147-5.147h-1.333zM16.267 12.187c2.106 0 3.813 1.707 3.813 3.813h1.333c0-2.842-2.304-5.147-5.147-5.147v1.333zM12.453 16c0-2.106 1.707-3.813 3.813-3.813v-1.333c-2.842 0-5.147 2.304-5.147 5.147h1.333zM16.267 19.813c-2.106 0-3.813-1.707-3.813-3.813h-1.333c0 2.842 2.304 5.147 5.147 5.147v-1.333z"></path>
</symbol>
<symbol id="icon-games" viewBox="0 0 33 32">
<path fill="#9b53f8" style="fill: var(--color5, #9b53f8)" d="M19.733 18.667c0.736 0 1.333 0.597 1.333 1.333s-0.597 1.333-1.333 1.333c-0.736 0-1.333-0.597-1.333-1.333s0.597-1.333 1.333-1.333z"></path>
<path fill="none" stroke="#9b53f8" style="stroke: var(--color5, #9b53f8)" stroke-linejoin="miter" stroke-linecap="round" stroke-miterlimit="4" stroke-width="1.3333" d="M14.4 18.667h-5.333"></path>
<path fill="none" stroke="#9b53f8" style="stroke: var(--color5, #9b53f8)" stroke-linejoin="miter" stroke-linecap="round" stroke-miterlimit="4" stroke-width="1.3333" d="M11.733 16v5.333"></path>
<path fill="#9b53f8" style="fill: var(--color5, #9b53f8)" d="M23.733 16c0.736 0 1.333 0.597 1.333 1.333s-0.597 1.333-1.333 1.333c-0.736 0-1.333-0.597-1.333-1.333s0.597-1.333 1.333-1.333z"></path>
<path fill="none" stroke="#9b53f8" style="stroke: var(--color5, #9b53f8)" stroke-linejoin="miter" stroke-linecap="round" stroke-miterlimit="4" stroke-width="1.3333" d="M19.733 10.667v0c0-0.556 0-0.834-0.046-1.078-0.16-0.849-0.721-1.568-1.506-1.929-0.226-0.104-0.496-0.171-1.035-0.306l-0.080-0.020c-0.615-0.154-0.922-0.231-1.177-0.356-0.731-0.36-1.258-1.034-1.43-1.831-0.060-0.278-0.060-0.595-0.060-1.228v-1.251"></path>
<path fill="none" stroke="#9b53f8" style="stroke: var(--color5, #9b53f8)" stroke-linejoin="miter" stroke-linecap="butt" stroke-miterlimit="4" stroke-width="1.3333" d="M5.067 18.667c0-3.412 0-5.118 0.827-6.293 0.213-0.303 0.461-0.573 0.738-0.806 1.077-0.902 2.641-0.902 5.768-0.902h9.333c3.127 0 4.691 0 5.768 0.902 0.277 0.232 0.526 0.503 0.738 0.806 0.827 1.175 0.827 2.881 0.827 6.293s0 5.118-0.827 6.293c-0.213 0.303-0.461 0.573-0.738 0.805-1.077 0.902-2.641 0.902-5.768 0.902h-9.333c-3.127 0-4.691 0-5.768-0.902-0.277-0.232-0.526-0.503-0.738-0.805-0.827-1.175-0.827-2.881-0.827-6.293z"></path>
</symbol>
</defs>
</svg>
